<svg xmlns="http://www.w3.org/2000/svg" width="15" height="15" viewBox="0 0 15 15">
    <defs>
        <linearGradient id="prefix__a" x1="50%" x2="50%" y1="0%" y2="100%">
            <stop offset="0%" stop-color="#E77898"/>
            <stop offset="100%" stop-color="#6021E8"/>
        </linearGradient>
    </defs>
    <path fill="url(#prefix__a)" d="M89.862 38.727l1.75-2.334h-6.999l1.75 2.334h3.5zm0 1.166h-3.5c-2.365 1.274-5.248 4.22-5.248 6.854-.025.66.126 1.315.437 1.898v.031l.002-.027c.89 1.545 3.042 1.744 5.56 1.744h2c3.312 0 5.998-.338 5.998-3.646 0-2.633-2.883-5.58-5.249-6.854zm-1.166 7.554v.321c0 .322-.262.584-.584.584-.322 0-.583-.262-.583-.584v-.291h-.583c-.322 0-.583-.262-.583-.584 0-.322.26-.583.583-.583h1.458c.161 0 .292-.13.292-.292 0-.16-.131-.291-.292-.291h-.583c-.749 0-1.376-.567-1.45-1.312-.076-.745.425-1.426 1.158-1.576v-.32c0-.323.261-.584.583-.584.322 0 .584.261.584.583v.292h.291c.322 0 .583.261.583.583 0 .322-.26.584-.583.584h-1.166c-.161 0-.292.13-.292.291 0 .161.13.292.292.292h.583c.748 0 1.375.567 1.45 1.312.076.744-.425 1.425-1.158 1.575z" transform="translate(-81 -36)"/>
</svg>
