<svg xmlns="http://www.w3.org/2000/svg" width="29" height="29" viewBox="0 0 29 29">
    <path fill="#2DDDB5" d="M7.25 10.875c-1.334.001-2.415 1.083-2.417 2.417v6.041c0 1.335 1.082 2.417 2.417 2.417 1.335 0 2.417-1.082 2.417-2.417v-6.041c-.002-1.334-1.083-2.416-2.417-2.417zm16.917 8.458v-6.041c0-1.335-1.082-2.417-2.417-2.417-1.335 0-2.417 1.082-2.417 2.417v6.041c0 1.335 1.082 2.417 2.417 2.417 1.335 0 2.417-1.082 2.417-2.417zM14.5 0C6.496.01.01 6.496 0 14.5v2.417c0 .667.541 1.208 1.208 1.208.668 0 1.209-.541 1.209-1.208V14.5c0-6.673 5.41-12.083 12.083-12.083S26.583 7.827 26.583 14.5v7.25c-.002 2-1.624 3.623-3.625 3.625h-6.376c-.547-.947-1.662-1.41-2.719-1.126-1.056.283-1.791 1.24-1.791 2.334s.735 2.051 1.791 2.334c1.057.284 2.172-.178 2.719-1.126h6.376c3.335-.003 6.038-2.706 6.042-6.041V14.5C28.99 6.496 22.504.01 14.5 0z"/>
</svg>
