<svg xmlns="http://www.w3.org/2000/svg" width="29" height="29" viewBox="0 0 29 29">
    <path fill="#3645C9" d="M18.125 0h-7.25C5.341-.002.688 4.155.07 9.655c-.62 5.5 2.993 10.588 8.39 11.816V29l8.458-7.25h1.208C24.131 21.75 29 16.881 29 10.875S24.131 0 18.125 0zM7.855 12.688c-1.001 0-1.813-.812-1.813-1.813s.812-1.813 1.813-1.813c1 0 1.812.812 1.812 1.813s-.811 1.812-1.812 1.813zm6.645 0c-1 0-1.812-.812-1.812-1.813s.811-1.813 1.812-1.813 1.813.812 1.813 1.813-.812 1.812-1.813 1.813zm6.646 0c-1.001 0-1.812-.812-1.812-1.813s.811-1.813 1.812-1.813 1.812.812 1.812 1.813-.811 1.812-1.812 1.813z"/>
</svg>
