<svg xmlns="http://www.w3.org/2000/svg" width="26" height="26" viewBox="0 0 26 26">
    <path fill="#E457FE" d="M21.273 0H4.727C2.117 0 0 2.116 0 4.727v16.546C0 23.883 2.116 26 4.727 26h16.546C23.883 26 26 23.884 26 21.273V4.727C26 2.117 23.884 0 21.273 0zm0 20.09c0 1.306-1.059 2.365-2.364 2.365s-2.364-1.059-2.364-2.364v-2.364h-7.09v2.364c0 1.305-1.059 2.364-2.364 2.364s-2.364-1.059-2.364-2.364v-8.273c0-4.569 3.704-8.273 8.273-8.273 4.569 0 8.273 3.704 8.273 8.273v8.273zM13 8.274c-1.957.002-3.543 1.588-3.545 3.545V13h7.09v-1.182C16.543 9.861 14.957 8.275 13 8.273z"/>
</svg>
