<svg xmlns="http://www.w3.org/2000/svg" width="21" height="21" viewBox="0 0 21 21">
    <path fill="#E457FE" d="M11.377 15.75H9.623c-.964.003-1.745.784-1.748 1.748v1.751c.003.966.785 1.748 1.751 1.751h1.748c.966-.003 1.748-.785 1.751-1.751v-1.751c-.003-.964-.784-1.745-1.748-1.748zM3.502 7.875H1.748C.784 7.878.003 8.659 0 9.623v1.754c.003.964.784 1.745 1.748 1.748h1.754c.964-.003 1.745-.784 1.748-1.748V9.623c-.003-.964-.784-1.745-1.748-1.748zm0-7.875H1.748C.784.003.003.784 0 1.748v1.754c.003.964.784 1.745 1.748 1.748h1.754c.964-.003 1.745-.784 1.748-1.748V1.748C5.247.784 4.466.003 3.502 0zm0 15.75H1.748c-.964.003-1.745.784-1.748 1.748v1.751c.003.966.785 1.748 1.751 1.751H3.5c.966-.003 1.748-.785 1.751-1.751v-1.751c-.003-.964-.784-1.745-1.748-1.748zM19.252 0h-1.754c-.964.003-1.745.784-1.748 1.748v1.754c.003.964.784 1.745 1.748 1.748h1.754c.964-.003 1.745-.784 1.748-1.748V1.748C20.997.784 20.216.003 19.252 0zm0 7.875h-1.754c-.964.003-1.745.784-1.748 1.748v1.754c.003.964.784 1.745 1.748 1.748h1.754c.964-.003 1.745-.784 1.748-1.748V9.623c-.003-.964-.784-1.745-1.748-1.748zm0 7.875h-1.754c-.964.003-1.745.784-1.748 1.748v1.751c.003.966.785 1.748 1.751 1.751h1.748c.966-.003 1.748-.785 1.751-1.751v-1.751c-.003-.964-.784-1.745-1.748-1.748zM11.377 0H9.623c-.964.003-1.745.784-1.748 1.748v1.754c.003.964.784 1.745 1.748 1.748h1.754c.964-.003 1.745-.784 1.748-1.748V1.748C13.122.784 12.341.003 11.377 0zm0 7.875H9.623c-.964.003-1.745.784-1.748 1.748v1.754c.003.964.784 1.745 1.748 1.748h1.754c.964-.003 1.745-.784 1.748-1.748V9.623c-.003-.964-.784-1.745-1.748-1.748z"/>
</svg>
