<svg xmlns="http://www.w3.org/2000/svg" width="24" height="29" viewBox="0 0 24 29">
    <path fill="#3645C9" d="M14.4 0H9.6C4.298 0 0 4.722 0 10.545v5.273C0 23.098 5.372 29 12 29s12-5.902 12-13.182v-5.273C24 4.722 19.702 0 14.4 0zM4.8 11.48c0-1.002.806-1.813 1.8-1.813s1.8.811 1.8 1.812-.806 1.813-1.8 1.813-1.8-.812-1.8-1.813zm13.455 8.66c-1.591 1.793-3.867 2.818-6.255 2.818s-4.664-1.025-6.255-2.817c-.436-.498-.393-1.256.098-1.7.49-.442 1.243-.405 1.687.085 1.137 1.283 2.763 2.016 4.47 2.016 1.707 0 3.333-.733 4.47-2.016.285-.325.722-.472 1.144-.383.422.088.764.398.897.81.133.414.035.867-.256 1.188zm-.855-6.848c-.994 0-1.8-.812-1.8-1.813 0-1 .806-1.812 1.8-1.812s1.8.811 1.8 1.812-.806 1.813-1.8 1.813z"/>
</svg>
