<svg xmlns="http://www.w3.org/2000/svg" width="12" height="15" viewBox="0 0 12 15">
    <defs>
        <linearGradient id="prefix__a" x1="50%" x2="50%" y1="0%" y2="100%">
            <stop offset="0%" stop-color="#E77898"/>
            <stop offset="100%" stop-color="#6021E8"/>
        </linearGradient>
    </defs>
    <path fill="url(#prefix__a)" d="M339.195 34.874h-6.05c-.608 0-1.1.522-1.1 1.166v11.667c0 .644.492 1.167 1.1 1.167h8.8c.607 0 1.1-.523 1.1-1.167v-8.75h-3.85v-4.083zm-1.1 11.053v.322c0 .322-.246.583-.55.583-.304 0-.55-.261-.55-.583v-.292h-.55c-.304 0-.55-.261-.55-.583 0-.322.246-.584.55-.584h1.375c.152 0 .275-.13.275-.291 0-.161-.123-.292-.275-.292h-.55c-.706 0-1.297-.567-1.368-1.312-.071-.745.401-1.425 1.093-1.575v-.321c0-.322.246-.584.55-.584.304 0 .55.262.55.584v.291h.275c.304 0 .55.262.55.584 0 .322-.246.583-.55.583h-1.1c-.152 0-.275.13-.275.292 0 .16.123.291.275.291h.55c.706 0 1.297.567 1.368 1.312.07.745-.401 1.426-1.093 1.575zm2.2-11.053v2.916h2.75l-2.75-2.916z" transform="translate(-332 -34)"/>
</svg>
