<svg xmlns="http://www.w3.org/2000/svg" xmlns:xlink="http://www.w3.org/1999/xlink" width="296" height="57" viewBox="0 0 296 57">
    <defs>
        <filter id="prefix__b" width="107%" height="107%" x="-3.5%" y="-3.5%" filterUnits="objectBoundingBox">
            <feGaussianBlur in="SourceAlpha" result="shadowBlurInner1" stdDeviation="1.5"/>
            <feOffset dx="-1" dy="1" in="shadowBlurInner1" result="shadowOffsetInner1"/>
            <feComposite in="shadowOffsetInner1" in2="SourceAlpha" k2="-1" k3="1" operator="arithmetic" result="shadowInnerInner1"/>
            <feColorMatrix in="shadowInnerInner1" values="0 0 0 0 0.368627451 0 0 0 0 0.211764706 0 0 0 0 0.721568627 0 0 0 0 0"/>
        </filter>
        <filter id="prefix__c" width="112.6%" height="112.6%" x="-6.3%" y="-6.3%" filterUnits="objectBoundingBox">
            <feOffset in="SourceAlpha" result="shadowOffsetOuter1"/>
            <feGaussianBlur in="shadowOffsetOuter1" result="shadowBlurOuter1" stdDeviation="1"/>
            <feColorMatrix in="shadowBlurOuter1" values="0 0 0 0 0.217475027 0 0 0 0 0 0 0 0 0 0.561480978 0 0 0 1 0"/>
        </filter>
        <path id="prefix__a" d="M28.476 56.952c15.727 0 28.476-12.75 28.476-28.476 0-10.964-4.652-15.065-10.786-20.288C41.196 3.955 37.774 0 28.476 0c-8.559 0-15.34 5.074-20.56 11.05C3.543 16.057 0 21.309 0 28.477c0 8.305 4.254 17.76 10.912 20.547 6.346 2.657 10.142 7.929 17.564 7.929z"/>
        <path id="prefix__d" d="M29.849 52.776c13.13 0 23.773-10.644 23.773-23.773 0-9.153-3.884-12.577-9.004-16.938-4.15-3.533-7.007-6.835-14.77-6.835-7.145 0-12.806 4.235-17.164 9.225-3.65 4.18-6.608 8.564-6.608 14.548 0 6.933 3.551 14.827 9.11 17.154 5.297 2.218 8.467 6.619 14.663 6.619z"/>
    </defs>
    <g fill="none" fill-rule="evenodd">
        <use fill="#6430E2" xlink:href="#prefix__a"/>
        <use fill="#000" filter="url(#prefix__b)" xlink:href="#prefix__a"/>
        <g transform="rotate(92 29.849 29.003)">
            <use fill="#000" filter="url(#prefix__c)" xlink:href="#prefix__d"/>
            <use fill="#3BE8C3" xlink:href="#prefix__d"/>
        </g>
        <path fill="#131313" d="M10.54 29.997c-.4 11.43 8.544 21.02 19.974 21.42 7.97.278 11.068-3 15.02-7.325 3.203-3.504 6.164-5.892 6.4-12.65.218-6.22-3.298-11.278-7.51-15.224-3.527-3.305-7.254-6.014-12.464-6.196-6.036-.21-13.017 2.642-15.211 7.41-2.092 4.545-6.02 7.17-6.209 12.565z"/>
        <g transform="translate(22.35 22.953)">
            <rect width="2.071" height="7.248" y="4.487" fill="#E9E9F9" rx=".533"/>
            <rect width="2.071" height="11.39" x="3.935" y="2.416" fill="#3BE8C3" rx=".533"/>
            <rect width="2.123" height="7.248" x="15.739" y="4.487" fill="#E9E9F9" rx=".547" transform="matrix(-1 0 0 1 33.602 0)"/>
            <rect width="2.071" height="11.39" x="11.805" y="2.416" fill="#3BE8C3" rx=".533" transform="matrix(-1 0 0 1 25.68 0)"/>
            <rect width="2.071" height="16.05" x="7.87" y=".06" fill="#6430E2" rx=".533"/>
        </g>
        <g fill-rule="nonzero">
            <path fill="#FFF" d="M13.665 25.33l8.243-23.892h-4.736l-3.868 11.637-2.205 7.941h-.109l-2.241-7.94L4.88 1.437H0l8.243 23.891h5.422zm18.8.41c3.506 0 6.254-1.266 7.808-3.286l-2.494-2.636c-1.157 1.404-2.53 2.43-4.808 2.43-3.037 0-4.592-1.745-4.592-4.312v-.445h12.545v-1.438c0-4.894-2.711-9.002-8.604-9.002-5.531 0-8.749 3.663-8.749 9.31 0 5.717 3.326 9.379 8.893 9.379zm3.65-10.953H28.38v-.274c0-2.464 1.591-4.176 4.013-4.176 2.386 0 3.724 1.677 3.724 4.142v.308zM50.54 25.329V14.376c0-1.951 1.627-2.772 4.736-2.772h1.446V7.462H55.71c-3 0-4.519 1.814-4.989 3.697h-.18V7.462h-4.628v17.867h4.627zm15.112 0V13.52c0-1.916 1.844-2.875 3.76-2.875 2.205 0 3.109 1.3 3.109 3.834v10.85h4.627V14.034c0-4.45-2.169-6.983-6.037-6.983-2.928 0-4.52 1.472-5.278 3.389h-.181V7.462h-4.627v17.867h4.627zm22.197.411c2.82 0 4.88-1.198 5.495-3.491h.217c.29 1.848 1.519 3.08 3.507 3.08h2.567v-3.491h-1.88v-8.42c0-4.074-2.711-6.367-7.809-6.367-3.796 0-6.001 1.37-7.375 3.423l2.748 2.328c.903-1.233 2.133-2.26 4.302-2.26 2.458 0 3.506 1.164 3.506 3.15v1.3H89.91c-5.134 0-8.062 1.814-8.062 5.477 0 3.183 2.17 5.271 6.001 5.271zm1.555-3.183c-1.808 0-2.856-.72-2.856-2.157v-.582c0-1.403 1.193-2.19 3.615-2.19h2.964v2.362c0 1.677-1.662 2.567-3.723 2.567zm22.342 3.183c3.651 0 6.29-1.575 7.52-4.724l-3.544-1.608c-.686 1.608-1.771 2.806-3.976 2.806-2.567 0-3.868-1.677-3.868-4.175v-3.252c0-2.499 1.301-4.21 3.868-4.21 1.988 0 3.181 1.095 3.615 2.601l3.796-1.609c-1.12-2.806-3.615-4.518-7.411-4.518-5.568 0-8.713 3.594-8.713 9.31 0 5.75 3.145 9.379 8.713 9.379zm17.823 0c3.109 0 4.627-1.609 5.278-3.389h.18v2.978h4.628V7.462h-4.627V19.27c0 1.917-1.844 2.84-3.688 2.84-2.205 0-3.181-1.334-3.181-3.799V7.462h-4.628v11.295c0 4.45 2.17 6.983 6.038 6.983zm23.462-.41v-3.492h-2.494V0h-4.628v21.016c0 2.739 1.483 4.313 4.628 4.313h2.494zm9.074.41c2.82 0 4.881-1.198 5.496-3.491h.216c.29 1.848 1.519 3.08 3.507 3.08h2.567v-3.491h-1.88v-8.42c0-4.074-2.711-6.367-7.809-6.367-3.796 0-6 1.37-7.375 3.423l2.748 2.328c.904-1.233 2.133-2.26 4.302-2.26 2.458 0 3.507 1.164 3.507 3.15v1.3h-3.218c-5.133 0-8.062 1.814-8.062 5.477 0 3.183 2.17 5.271 6.001 5.271zm1.555-3.183c-1.808 0-2.856-.72-2.856-2.157v-.582c0-1.403 1.193-2.19 3.615-2.19h2.965v2.362c0 1.677-1.663 2.567-3.724 2.567zm19.522 2.772V14.376c0-1.951 1.627-2.772 4.736-2.772h1.446V7.462h-1.012c-3 0-4.52 1.814-4.99 3.697h-.18V7.462h-4.627v17.867h4.627z" transform="translate(67 17)"/>
            <path fill="#5D2ED8" d="M193.393 25.74c1.918 0 2.79-1.1 2.79-2.588v-.638c0-1.525-.872-2.624-2.79-2.624-1.883 0-2.79 1.1-2.79 2.624v.638c0 1.489.907 2.588 2.79 2.588z" transform="translate(67 17)"/>
            <path fill="#FFF" d="M207.098 25.74c2.8 0 4.845-1.189 5.455-3.464h.215c.287 1.834 1.507 3.057 3.481 3.057h2.548v-3.464h-1.866v-8.354c0-4.04-2.691-6.316-7.751-6.316-3.768 0-5.957 1.358-7.321 3.396l2.727 2.309c.897-1.223 2.118-2.241 4.27-2.241 2.441 0 3.482 1.154 3.482 3.124v1.29h-3.194c-5.096 0-8.003 1.8-8.003 5.434 0 3.158 2.153 5.229 5.957 5.229zm1.543-3.158c-1.794 0-2.835-.713-2.835-2.14v-.577c0-1.392 1.185-2.173 3.589-2.173h2.943v2.343c0 1.664-1.651 2.547-3.697 2.547zm17.082-17.556c1.866 0 2.692-.917 2.692-2.174v-.679c0-1.256-.826-2.173-2.692-2.173-1.902 0-2.691.917-2.691 2.173v.68c0 1.256.79 2.173 2.691 2.173zm2.297 20.307V7.607h-4.594v17.726h4.594z" transform="translate(67 17)"/>
        </g>
    </g>
</svg>
