<svg xmlns="http://www.w3.org/2000/svg" width="18" height="15" viewBox="0 0 18 15">
    <defs>
        <linearGradient id="prefix__a" x1="50%" x2="50%" y1="0%" y2="100%">
            <stop offset="0%" stop-color="#E77898"/>
            <stop offset="100%" stop-color="#6021E8"/>
        </linearGradient>
    </defs>
    <path fill="url(#prefix__a)" d="M1000.963 38.527v-.242c.555-.333.826-1.013.66-1.657-.166-.643-.727-1.091-1.368-1.091-.641 0-1.203.448-1.369 1.091-.166.644.105 1.324.66 1.657v.242c-4.01.38-7.082 3.876-7.083 8.064h15.584c-.001-4.188-3.073-7.684-7.084-8.064zm7.084 9.537h-15.584c-.391 0-.708.33-.708.736 0 .407.317.737.708.737h15.584c.39 0 .708-.33.708-.737 0-.406-.317-.736-.708-.736z" transform="translate(-991 -35)"/>
</svg>
