<svg xmlns="http://www.w3.org/2000/svg" xmlns:xlink="http://www.w3.org/1999/xlink" width="147" height="29" viewBox="0 0 147 29">
    <defs>
        <filter id="prefix__b" width="114.1%" height="114.2%" x="-7%" y="-7.1%" filterUnits="objectBoundingBox">
            <feGaussianBlur in="SourceAlpha" result="shadowBlurInner1" stdDeviation="1.5"/>
            <feOffset dx="-1" dy="1" in="shadowBlurInner1" result="shadowOffsetInner1"/>
            <feComposite in="shadowOffsetInner1" in2="SourceAlpha" k2="-1" k3="1" operator="arithmetic" result="shadowInnerInner1"/>
            <feColorMatrix in="shadowInnerInner1" values="0 0 0 0 0.368627451 0 0 0 0 0.211764706 0 0 0 0 0.721568627 0 0 0 0 0"/>
        </filter>
        <filter id="prefix__c" width="125.5%" height="125.3%" x="-12.7%" y="-12.6%" filterUnits="objectBoundingBox">
            <feOffset in="SourceAlpha" result="shadowOffsetOuter1"/>
            <feGaussianBlur in="shadowOffsetOuter1" result="shadowBlurOuter1" stdDeviation="1"/>
            <feColorMatrix in="shadowBlurOuter1" values="0 0 0 0 0.217475027 0 0 0 0 0 0 0 0 0 0.561480978 0 0 0 1 0"/>
        </filter>
        <filter id="prefix__e" width="129.2%" height="129%" x="-14.6%" y="-14.5%" filterUnits="objectBoundingBox">
            <feOffset in="SourceAlpha" result="shadowOffsetOuter1"/>
            <feGaussianBlur in="shadowOffsetOuter1" result="shadowBlurOuter1" stdDeviation="1"/>
            <feColorMatrix in="shadowBlurOuter1" values="0 0 0 0 0.110882924 0 0 0 0 0.490942029 0 0 0 0 0.409657712 0 0 0 0.844077797 0"/>
        </filter>
        <path id="prefix__a" d="M14.213 28.233c7.85 0 14.213-6.32 14.213-14.117 0-5.435-2.322-7.468-5.383-10.057C20.563 1.96 18.853 0 14.213 0 9.941 0 6.556 2.515 3.951 5.478 1.769 7.96 0 10.563 0 14.116c0 4.117 2.123 8.805 5.446 10.186 3.168 1.317 5.063 3.93 8.767 3.93z"/>
        <path id="prefix__d" d="M14.9 26.243c6.51.002 11.785-5.31 11.783-11.863 0-4.568-1.927-6.278-4.465-8.455-2.058-1.764-3.475-3.412-7.323-3.413-3.542-.001-6.348 2.112-8.508 4.602-1.808 2.086-3.275 4.274-3.274 7.26 0 3.461 1.763 7.402 4.518 8.564 2.627 1.107 4.198 3.304 7.27 3.305z"/>
        <path id="prefix__f" d="M15.594 25.565c5.67.001 10.265-4.625 10.264-10.334-.001-3.98-1.679-5.469-3.89-7.366-1.793-1.536-3.027-2.972-6.38-2.973-3.085 0-5.53 1.84-7.411 4.01-1.576 1.816-2.853 3.722-2.852 6.324 0 3.015 1.535 6.447 3.935 7.46 2.289.964 3.658 2.878 6.334 2.88z"/>
    </defs>
    <g fill="none" fill-rule="evenodd">
        <use fill="#6430E2" xlink:href="#prefix__a"/>
        <use fill="#000" filter="url(#prefix__b)" xlink:href="#prefix__a"/>
        <g transform="rotate(92 14.898 14.377)">
            <use fill="#000" filter="url(#prefix__c)" xlink:href="#prefix__d"/>
            <use fill="#3BE8C3" xlink:href="#prefix__d"/>
        </g>
        <g transform="rotate(92 15.591 15.228)">
            <use fill="#000" filter="url(#prefix__e)" xlink:href="#prefix__f"/>
            <use fill="#FFF" xlink:href="#prefix__f"/>
        </g>
        <g transform="translate(11.155 11.379)">
            <rect width="1.034" height="3.593" y="2.224" fill="#E9E9F9" rx=".517"/>
            <rect width="1.034" height="5.647" x="1.964" y="1.198" fill="#3BE8C3" rx=".517"/>
            <rect width="1.06" height="3.593" x="7.856" y="2.224" fill="#E9E9F9" rx=".53" transform="matrix(-1 0 0 1 16.771 0)"/>
            <rect width="1.034" height="5.647" x="5.892" y="1.198" fill="#3BE8C3" rx=".517" transform="matrix(-1 0 0 1 12.818 0)"/>
            <rect width="1.034" height="7.956" x="3.928" y=".03" fill="#6430E2" rx=".517"/>
        </g>
        <g fill-rule="nonzero">
            <path fill="#000" d="M6.79 12.665L10.884.719H8.532L6.61 6.538l-1.096 3.97H5.46l-1.113-3.97L2.425.718H0l4.095 11.947H6.79zm9.34.205c1.742 0 3.107-.633 3.879-1.643l-1.24-1.318c-.574.702-1.257 1.215-2.388 1.215-1.509 0-2.281-.872-2.281-2.156v-.223h6.232v-.718c0-2.448-1.347-4.501-4.275-4.501-2.748 0-4.346 1.83-4.346 4.655 0 2.858 1.652 4.689 4.418 4.689zm1.813-5.477H14.1v-.137c0-1.232.79-2.087 1.993-2.087 1.186 0 1.85.838 1.85 2.07v.154zm7.167 5.272V7.188c0-.975.808-1.386 2.353-1.386h.718V3.73h-.503c-1.49 0-2.245.907-2.478 1.848h-.09V3.731h-2.3v8.934h2.3zm7.508 0V6.76c0-.958.916-1.437 1.868-1.437 1.095 0 1.545.65 1.545 1.916v5.426h2.299V7.017c0-2.225-1.078-3.491-3-3.491-1.455 0-2.245.735-2.622 1.694h-.09V3.73h-2.3v8.935h2.3zm11.028.205c1.401 0 2.425-.599 2.73-1.746h.108c.144.925.754 1.54 1.742 1.54h1.276V10.92h-.934v-4.21c0-2.037-1.348-3.183-3.88-3.183-1.886 0-2.982.684-3.664 1.711l1.365 1.164c.449-.616 1.06-1.13 2.137-1.13 1.222 0 1.742.582 1.742 1.575v.65H44.67c-2.55 0-4.005.907-4.005 2.738 0 1.592 1.077 2.636 2.981 2.636zm.772-1.592C43.52 11.278 43 10.92 43 10.2v-.29c0-.702.592-1.096 1.796-1.096h1.472v1.18c0 .84-.826 1.284-1.85 1.284zm11.1 1.592c1.815 0 3.126-.787 3.737-2.362l-1.76-.804c-.342.804-.88 1.403-1.976 1.403-1.276 0-1.922-.838-1.922-2.088V7.393c0-1.249.646-2.105 1.922-2.105.987 0 1.58.548 1.796 1.301l1.886-.804c-.557-1.404-1.796-2.26-3.682-2.26-2.766 0-4.33 1.798-4.33 4.656 0 2.875 1.564 4.689 4.33 4.689zm8.856 0c1.544 0 2.299-.804 2.622-1.694h.09v1.489h2.299V3.73h-2.3v5.904c0 .959-.915 1.42-1.831 1.42-1.096 0-1.58-.667-1.58-1.899V3.731h-2.3v5.648c0 2.225 1.078 3.491 3 3.491zm11.656-.205v-1.746h-1.239V0h-2.299v10.508c0 1.37.737 2.157 2.3 2.157h1.238zm4.509.205c1.4 0 2.425-.599 2.73-1.746h.108c.143.925.754 1.54 1.742 1.54h1.275V10.92h-.934v-4.21c0-2.037-1.347-3.183-3.88-3.183-1.885 0-2.981.684-3.664 1.711l1.365 1.164c.45-.616 1.06-1.13 2.138-1.13 1.221 0 1.742.582 1.742 1.575v.65h-1.598c-2.55 0-4.006.907-4.006 2.738 0 1.592 1.078 2.636 2.982 2.636zm.772-1.592c-.898 0-1.419-.359-1.419-1.078v-.29c0-.702.593-1.096 1.796-1.096h1.473v1.18c0 .84-.826 1.284-1.85 1.284zm9.7 1.387V7.188c0-.975.808-1.386 2.352-1.386h.719V3.73h-.503c-1.491 0-2.245.907-2.479 1.848h-.09V3.731h-2.299v8.934h2.3z" transform="translate(33.226 8)"/>
            <path fill="#5D2ED8" d="M96.083 12.87c.953 0 1.386-.55 1.386-1.294v-.32c0-.761-.433-1.311-1.386-1.311-.935 0-1.385.55-1.385 1.312v.319c0 .744.45 1.294 1.385 1.294z" transform="translate(33.226 8)"/>
            <path fill="#000" d="M102.893 12.87c1.39 0 2.406-.594 2.71-1.732h.107c.142.917.748 1.528 1.729 1.528h1.266v-1.732h-.927V6.758c0-2.02-1.337-3.158-3.851-3.158-1.872 0-2.96.679-3.638 1.697l1.356 1.155c.445-.611 1.051-1.12 2.121-1.12 1.213 0 1.73.577 1.73 1.561v.646h-1.587c-2.532 0-3.976.9-3.976 2.716 0 1.58 1.07 2.615 2.96 2.615zm.766-1.579c-.891 0-1.408-.357-1.408-1.07v-.288c0-.696.588-1.087 1.783-1.087h1.462v1.172c0 .832-.82 1.273-1.837 1.273zm8.487-8.778c.927 0 1.337-.459 1.337-1.087v-.34c0-.628-.41-1.086-1.337-1.086-.945 0-1.337.458-1.337 1.087v.34c0 .627.392 1.086 1.337 1.086zm1.141 10.153V3.803h-2.282v8.863h2.282z" transform="translate(33.226 8)"/>
        </g>
    </g>
</svg>
