<svg xmlns="http://www.w3.org/2000/svg" width="16" height="15" viewBox="0 0 16 15">
    <defs>
        <linearGradient id="prefix__a" x1="50%" x2="50%" y1="0%" y2="100%">
            <stop offset="0%" stop-color="#E77898"/>
            <stop offset="100%" stop-color="#6021E8"/>
        </linearGradient>
    </defs>
    <path fill="url(#prefix__a)" d="M608.495 34c-.346 0-.625.28-.625.625s.28.625.625.625c4.83.005 8.744 3.92 8.75 8.75 0 .345.28.625.625.625s.625-.28.625-.625c-.007-5.52-4.48-9.994-10-10zm0 2.5h-.455L603.495 49l5.625-2.045v1.42c0 .345.28.625.625.625s.625-.28.625-.625V46.5l1.25-.454v1.079c0 .345.28.625.625.625s.625-.28.625-.625v-1.534l3.125-1.136V44c-.005-4.14-3.36-7.495-7.5-7.5zm-.938 9.375c-.518 0-.937-.42-.937-.938 0-.517.42-.937.937-.937.518 0 .938.42.938.938 0 .248-.1.487-.275.662-.176.176-.414.275-.663.275zm1.875-5c-.518 0-.937-.42-.937-.938 0-.517.42-.937.937-.937.518 0 .938.42.938.938 0 .248-.1.487-.275.662-.176.176-.414.275-.663.275zm2.5 3.125c-.518 0-.937-.42-.937-.938 0-.517.42-.937.937-.937.518 0 .938.42.938.938 0 .248-.1.487-.275.662-.176.176-.414.275-.663.275z" transform="translate(-603 -34)"/>
</svg>
