<?xml version="1.0" encoding="UTF-8"?>
<svg width="98px" height="95px" viewBox="0 0 98 95" version="1.1" xmlns="http://www.w3.org/2000/svg" xmlns:xlink="http://www.w3.org/1999/xlink">
    <!-- Generator: Sketch 62 (91390) - https://sketch.com -->
    <title>Group 13</title>
    <desc>Created with Sketch.</desc>
    <defs>
        <path d="M19.9263648,39.8798799 C28.1782804,39.8798799 33.6078199,38.7227649 36.9421202,29.3396398 C37.9465821,26.5129621 39.8527296,22.6949273 39.8527296,19.9399399 C39.8527296,15.1731474 40.8789384,11.5550942 37.5135206,7.41477417 C33.8598795,2.91986614 26.1678449,-3.90798505e-14 19.9263648,-3.90798505e-14 C13.2543531,-3.90798505e-14 7.25703642,1.26699935 3.64051275,6.30501464 C1.2918277,9.57686137 0,15.6039723 0,19.9399399 C0,26.9284361 0.912972878,32.8656756 6.35099753,36.4261679 C9.48225301,38.4763262 15.9050757,39.8798799 19.9263648,39.8798799 Z" id="path-1"></path>
        <filter x="-71.8%" y="-72.0%" width="258.6%" height="251.6%" filterUnits="objectBoundingBox" id="filter-2">
            <feGaussianBlur stdDeviation="0.57599995" in="SourceGraphic"></feGaussianBlur>
        </filter>
        <filter x="-113.1%" y="-113.4%" width="341.1%" height="334.3%" filterUnits="objectBoundingBox" id="filter-3">
            <feOffset dx="20" dy="17" in="SourceAlpha" result="shadowOffsetOuter1"></feOffset>
            <feGaussianBlur stdDeviation="6.5" in="shadowOffsetOuter1" result="shadowBlurOuter1"></feGaussianBlur>
            <feColorMatrix values="0 0 0 0 0   0 0 0 0 0   0 0 0 0 1  0 0 0 0.0881228147 0" type="matrix" in="shadowBlurOuter1" result="shadowMatrixOuter1"></feColorMatrix>
            <feOffset dx="-14" dy="-14" in="SourceAlpha" result="shadowOffsetOuter2"></feOffset>
            <feGaussianBlur stdDeviation="6.5" in="shadowOffsetOuter2" result="shadowBlurOuter2"></feGaussianBlur>
            <feColorMatrix values="0 0 0 0 1   0 0 0 0 1   0 0 0 0 1  0 0 0 1 0" type="matrix" in="shadowBlurOuter2" result="shadowMatrixOuter2"></feColorMatrix>
            <feMerge>
                <feMergeNode in="shadowMatrixOuter1"></feMergeNode>
                <feMergeNode in="shadowMatrixOuter2"></feMergeNode>
            </feMerge>
        </filter>
        <linearGradient x1="50%" y1="0%" x2="50%" y2="100%" id="linearGradient-4">
            <stop stop-color="#E77898" offset="0%"></stop>
            <stop stop-color="#6021E8" offset="100%"></stop>
        </linearGradient>
    </defs>
    <g id="Page-1" stroke="none" stroke-width="1" fill="none" fill-rule="evenodd">
        <g id="1.-New-Home-Copy" transform="translate(-1157.000000, -3227.000000)">
            <g id="Group-13" transform="translate(1183.000000, 3253.000000)">
                <g id="Oval-Copy-10" opacity="0.748511905" filter="url(#filter-2)">
                    <use fill="black" fill-opacity="1" filter="url(#filter-3)" xlink:href="#path-1"></use>
                    <use fill="#F5F5F9" fill-rule="evenodd" xlink:href="#path-1"></use>
                </g>
                <path d="M21.2887692,22.6618778 L19.7112308,22.6618778 C19.2905279,22.6618778 18.887048,22.8289355 18.5895661,23.1263702 C18.2920842,23.4238049 18.125,23.8272207 18.125,24.2478569 L18.125,27.4111239 C18.125,28.2870305 18.8351852,28.997103 19.7112308,28.997103 L21.2887692,28.997103 C22.1648148,28.997103 22.875,28.2870305 22.875,27.4111239 L22.875,24.2478569 C22.875,23.8272207 22.7079158,23.4238049 22.4104339,23.1263702 C22.112952,22.8289355 21.7094721,22.6618778 21.2887692,22.6618778 Z M14.1637692,18.7070698 L12.5862308,18.7070698 C11.7101852,18.7070698 11,19.4171423 11,20.2930489 L11,27.4140209 C11,27.8346571 11.1670842,28.2380729 11.4645661,28.5355076 C11.762048,28.8329423 12.1655279,29 12.5862308,29 L14.1637692,29 C14.5844721,29 14.987952,28.8329423 15.2854339,28.5355076 C15.5829158,28.2380729 15.75,27.8346571 15.75,27.4140209 L15.75,20.2930489 C15.75,19.4171423 15.0398148,18.7070698 14.1637692,18.7070698 L14.1637692,18.7070698 Z M29.0326467,14.0650776 L27.7548967,15.3426247 L24.500099,12.0881485 L18.9584271,16.8373945 L12.3514146,10.2318107 C12.0422809,9.92272823 11.541078,9.92273001 11.2319465,10.2318146 C10.922815,10.5408992 10.9228167,11.0420226 11.2319504,11.3511051 L18.8749379,18.9932594 L24.4166046,14.2440133 L26.6352425,16.4621091 L25.3572867,17.7396563 C25.1951855,17.9017074 25.1466737,18.1454314 25.2343708,18.3571875 C25.3220679,18.5689437 25.5287049,18.7070334 25.7579333,18.7070698 L30,18.7070698 L30,14.4656765 C30,14.2365191 29.8619333,14.0299274 29.6501837,13.9422379 C29.4384341,13.8545485 29.1947034,13.9030311 29.0326467,14.0650776 Z M28.4137692,21.0787958 L26.8362308,21.0787958 C26.4155279,21.0787958 26.012048,21.2458535 25.7145661,21.5432882 C25.4170842,21.8407229 25.25,22.2441387 25.25,22.6647749 L25.25,27.4111239 C25.25,28.2870305 25.9601852,28.997103 26.8362308,28.997103 L28.4137692,28.997103 C29.2898148,28.997103 30,28.2870305 30,27.4111239 L30,22.6647749 C30,22.2441387 29.8329158,21.8407229 29.5354339,21.5432882 C29.237952,21.2458535 28.8344721,21.0787958 28.4137692,21.0787958 L28.4137692,21.0787958 Z" id="stocks-down" fill="url(#linearGradient-4)" fill-rule="nonzero"></path>
            </g>
        </g>
    </g>
</svg>