<svg xmlns="http://www.w3.org/2000/svg" width="55" height="55" viewBox="0 0 55 55">
    <g fill="none" fill-rule="evenodd">
        <rect width="54.9" height="54.9" fill="#FFF" rx="27.45"/>
        <path fill="#1D1D1D" d="M23.084 37.8c9.34 0 14.448-7.618 14.448-14.224 0-.217 0-.433-.015-.647.994-.707 1.851-1.584 2.533-2.588-.926.404-1.91.67-2.916.787 1.06-.625 1.853-1.607 2.233-2.766-.998.582-2.088.993-3.225 1.214-1.923-2.013-5.14-2.11-7.185-.217-1.318 1.22-1.878 3.04-1.469 4.777-4.082-.202-7.886-2.1-10.465-5.223-1.348 2.284-.659 5.206 1.572 6.673-.808-.023-1.598-.238-2.305-.625v.063c.001 2.38 1.705 4.429 4.074 4.9-.748.201-1.532.23-2.292.086.665 2.037 2.572 3.432 4.743 3.472-1.798 1.391-4.02 2.147-6.306 2.144-.403 0-.807-.024-1.209-.071 2.323 1.466 5.024 2.245 7.784 2.241"/>
    </g>
</svg>
